<svg xmlns="http://www.w3.org/2000/svg" width="900" height="245"><style type="text/css">.st0{fill:#e8eaee}.st1{fill:none;stroke:#d9dde3;stroke-width:1.9946;stroke-miterlimit:10}.st2{fill:#f6f8fa}.st3{fill:#f0f1f2}.st4{fill:#959da5}.st5{fill:none;stroke:#6a737d;stroke-width:.7495;stroke-miterlimit:10}.st6{fill:#e1e4e8}.st7{stroke:#fafbfc;stroke-width:.9993;stroke-miterlimit:10}.st7,.st8{fill:#d1d5da}.st9{fill:#79b8ff}.st10{fill:#2188ff}.st11{fill:#c8e1ff}.st12{fill:#6a737d}.st13{fill:#0366d6}.st14{fill:#ffd1ac}.st15{fill:#ffab70}.st16{fill:#ffebda}.st17{fill:#fff5b1}.st18{fill:#fb8532}.st19,.st20{fill:none;stroke:#0366d6;stroke-width:2;stroke-miterlimit:10}.st20{stroke-linecap:round}.st21{fill:#ffdf5d}.st22{fill:#f9c513}</style><g><title>background</title><rect id="canvas_background" width="902" height="247" x="-1" y="-1" fill="none"/></g><g><title>Layer 1</title><ellipse id="svg_1" cx="530.8" cy="231.3" class="st0" rx="67" ry="9"/><line id="svg_2" x1="899" x2="51.1" y1="215.2" y2="215.2" class="st1"/><rect id="svg_3" width="303.5" height="53.6" x="559.1" y="167.9" class="st2"/><path id="svg_4" d="m561.3,168.5c10.9,6.3 23.9,9.3 36.7,8.5c12.8,-0.8 25.3,-5.2 38.1,-4.1c9.8,0.9 19,5.1 28.4,7.8c11.2,3.2 23.1,4.4 34.8,3.4c20.2,-1.7 40.5,-9.6 60.1,-4.8c7.2,1.7 13.9,5.1 20.7,7.6c24.2,8.8 42.8,6.5 65,-6c6.3,-3.6 12.3,-8.1 15.8,-14.2" class="st3"/><polygon id="svg_5" points="839.6 143.8 584.7 143.8 552.1 154.3 868.9 154.3" class="st2"/><polygon id="svg_6" points="707.3 145.3 601.7 145.3 585.9 150.6 702.3 150.6" class="st4"/><path id="svg_7" d="m585.9,150.6l15.9,-5.3l-12.2,0l-16.2,5c0,0 12.7,0.6 12.5,0.3z" class="st0"/><line id="svg_8" x1="609.6" x2="599.4" y1="146" y2="149.9" class="st5"/><line id="svg_9" x1="625.1" x2="614.9" y1="146" y2="149.9" class="st5"/><line id="svg_10" x1="640.6" x2="630.4" y1="146" y2="149.9" class="st5"/><line id="svg_11" x1="656.1" x2="645.8" y1="146" y2="149.9" class="st5"/><line id="svg_12" x1="671.6" x2="661.3" y1="146" y2="149.9" class="st5"/><line id="svg_13" x1="687.1" x2="676.8" y1="146" y2="149.9" class="st5"/><line id="svg_14" x1="702.6" x2="692.3" y1="146" y2="149.9" class="st5"/><polygon id="svg_15" points="552.7 169.3 868.3 168.7 869 154.6 552.7 154.3" class="st6"/><polygon id="svg_16" points="718.5 148.5 692.6 148 692.8 145.3 720.6 145.6" class="st7"/><rect id="svg_17" width="11.6" height="17.7" x="612.8" y="128.7" class="st6"/><path id="svg_18" d="m621.4,129.3c-0.8,3 -5.1,11.4 -5.1,11.4l7.8,-0.1l0.4,-11.9l-3.1,0.6z" class="st8"/><polygon id="svg_19" points="621.9 148.2 591 148.2 591 140.2 621.9 139.6" class="st0"/><polygon id="svg_20" points="621.9 148.2 631.4 146.2 630.9 138.6 621.9 139.6" class="st8"/><polygon id="svg_21" points="591 140.2 606.5 138.4 630.9 138.6 621.9 139.6" class="st2"/><rect id="svg_22" width="16.3" height="5" x="593.8" y="141.5" class="st2"/><rect id="svg_23" width="5.1" height="5" x="612.5" y="141.5" class="st2"/><polygon id="svg_24" points="660.3 148.1 630 147.2 629.7 105 659.1 105" class="st0"/><polygon id="svg_25" points="665.5 145.6 659.8 148.4 658.7 104.7 665.5 102" class="st6"/><polygon id="svg_26" points="664.5 110.9 661.1 112.6 661.1 107.9 664.5 106.3" class="st0"/><polygon id="svg_27" points="664.4 143.1 661.2 144.7 661.2 116.2 664.4 114.6" class="st0"/><polygon id="svg_28" points="665.5 102 658.5 105.2 629.7 105 638.1 102.8" class="st2"/><rect id="svg_29" width="25.8" height="4.8" x="631.9" y="107.6" class="st2"/><path id="svg_30" d="m648.3,120.4c-3.5,-1.6 -11.4,0.5 -11.4,6.1s3.8,9.9 8.7,8.8c4.8,-1 7.3,-5 7.1,-7.6c-1,1 -1.9,1 -2.6,0.3c-0.7,-0.7 0.2,-2.8 0.2,-2.8s-1.9,1.2 -2.4,-0.2c-0.5,-1.4 0.5,-2.8 0.5,-2.8s-2.1,0.5 -2.1,-0.3s2,-1.5 2,-1.5z" class="st2"/><path id="svg_31" d="m645.2,133.9c-4.6,1 -7.2,-4.3 -8.1,-8.6c-0.1,0.4 -0.2,0.8 -0.2,1.2c0,5.5 3.8,9.9 8.7,8.8c3.9,-0.8 6.3,-3.6 6.9,-6c-1.1,1.3 -3.6,3.8 -7.3,4.6z" class="st6"/><ellipse id="svg_32" cx="646.8" cy="128.8" class="st0" rx=".4" ry=".5"/><ellipse id="svg_33" cx="642" cy="122.9" class="st0" rx=".5" ry=".6"/><ellipse id="svg_34" cx="642.1" cy="130.8" class="st0" rx=".4" ry=".4"/><circle id="svg_35" cx="643.3" cy="126.8" r=".5" class="st0"/><path id="svg_36" d="m660.3,148.1c-0.5,-0.5 -0.8,-1.1 -1.1,-1.7c-0.5,-1.2 -0.9,-2.5 -1.6,-3.6c-1.9,-3.1 -6.3,-3.8 -9.7,-2.4c-1.5,0.6 -2.9,1.6 -4.6,1.8c-1.9,0.2 -3.8,-0.7 -4.8,-2.3c-0.9,-1.5 -1,-3.3 -1.8,-4.9c-1.2,-2.6 -4.2,-3.9 -7,-3.7l0.3,15.9l30.3,0.9l0,0z" class="st6"/><ellipse id="svg_37" cx="763.401" cy="263.101" class="st0" rx="1.4" ry="5.9" transform="matrix(0.07447392,-0.9972,0.9972,0.07447392,299.5396,870.5492)"/><g id="svg_38"><polygon id="svg_39" points="708 126.4 656.6 126.4 642.3 100.8 695.6 100.8" class="st9"/><polygon id="svg_40" points="702.9 153.3 648.7 152.2 648.7 134.6 702.9 135.7" class="st9"/><polygon id="svg_41" points="702.8 153.3 707.7 148.2 707.8 131.7 702.8 135.7" class="st10"/><polygon id="svg_42" points="648.7 134.6 663.5 131.3 707.9 131.7 702.9 135.7" class="st11"/><polygon id="svg_43" points="708 126.4 709.8 123.2 696.8 97.4 695.6 100.8" class="st10"/><polygon id="svg_44" points="696.8 97.4 645.1 97.4 642.3 100.8 695.6 100.8" class="st11"/><polygon id="svg_45" points="685.1 117.5 669.7 117.5 668.1 114.7 683.6 114.7" class="st10"/><rect id="svg_46" width="10.9" height="19.2" x="670.9" y="115.3" class="st4"/><polygon id="svg_47" points="681.7 115.3 683.2 117.3 683.2 133.8 681.7 134.5" class="st12"/><path id="svg_48" d="m702.9,153.3l0,-12.3c-2,-0.5 -4.3,0.4 -6.1,1.7c-2.2,1.6 -4.1,3.7 -6.6,4.6c-1.8,0.6 -3.7,0.6 -5.6,0.4c-4.3,-0.4 -8.6,-1.5 -12.9,-1.8c-4.3,-0.3 -8.9,0.2 -12.5,2.7c-1.6,1.1 -3.1,2.7 -4.7,3.7l48.4,1z" class="st10"/><path id="svg_49" d="m707.7,143.6c-0.6,0.4 -1.3,0.7 -1.9,0.8c-1.4,0.2 -2.2,-2.9 -3.1,-3.4l0,12.4l4.9,-5.1l0.1,-4.7z" class="st13"/><polygon id="svg_50" points="697.3 123.1 695.8 123.1 694.1 119.7 695.5 119.7" class="st12"/><polygon id="svg_51" points="700.5 123.1 699.1 123.1 697.3 119.7 698.7 119.7" class="st12"/></g><g id="svg_52"><rect id="svg_53" width="22.7" height="12.1" x="703.8" y="140.6" class="st14"/><polygon id="svg_54" points="728.9 150.3 726.2 152.7 726.2 140.6 728.9 139.6" class="st15"/><polygon id="svg_55" points="728.9 139.6 726.2 140.6 703.8 140.6 708.8 139.6" class="st16"/><rect id="svg_56" width="13.5" height=".3" x="710" y="139.9" class="st15"/><path id="svg_57" d="m711,139.9c1.9,-5.3 -3.6,-12.3 -6,-12.6l15.3,0c4.6,3.2 2.3,12.6 2.3,12.6s-11.7,0.4 -11.6,0z" class="st17"/><polygon id="svg_58" points="720.1 129.6 710.6 129.6 709.9 129.1 719.4 129.1" class="st14"/><polygon id="svg_59" points="720.6 131.8 711.9 131.8 711.3 131.1 720.2 131.1" class="st14"/><polygon id="svg_60" points="716.6 134 712.9 134 712.6 133.3 716.4 133.3" class="st14"/><polygon id="svg_61" points="716.4 136.5 713.3 136.5 713.3 135.7 716.3 135.7" class="st14"/><polygon id="svg_62" points="717.6 138.5 713.2 138.5 713.2 137.8 717.6 137.8" class="st14"/><path id="svg_63" d="m728.8,144.2c-0.3,0.4 -0.3,1.1 -0.5,1.6s-0.8,1 -1.3,0.7c-0.2,-0.1 -0.3,-0.4 -0.4,-0.6c-0.1,-0.1 -0.2,-0.3 -0.3,-0.4l0,7.2l2.6,-2.3l-0.1,-6.2c0,-0.1 0,0 0,0z" class="st18"/><path id="svg_64" d="m726.5,145.8c-0.6,-0.8 -1.9,-0.8 -2.8,-0.2c-0.9,0.6 -1.5,1.5 -2.2,2.3c-1.7,2 -4.3,3.2 -7,3.2c-2.6,0 -5.2,-1 -7.8,-0.6c-0.5,0.1 -1.8,0.5 -2.8,1.1l0,1.1l22.7,0l0,-6.9l-0.1,0z" class="st15"/></g><path id="svg_65" d="m804.6,109.3c12.7,-5.3 20.7,-20.9 22.4,-31.2c1.5,-9.1 0.7,-15.5 -0.9,-20.1c0.8,-5.6 -3.5,-17.9 -9.5,-18.9c-8.3,0 -14.8,6.5 -16.7,9.2" class="st19"/><path id="svg_66" d="m809.9,45.3c1.9,-2.4 5,-1.5 6.3,-1s3.4,7.6 0.7,19" class="st19"/><path id="svg_67" d="m812.9,39c-7,-8.3 -25.2,-9.7 -33.9,-8.4c-8.6,1.4 -28.1,8.9 -31.6,22.7s1.1,28.4 3.8,32.9c-4.9,4.9 -1.6,13.8 3.2,18.9c4.9,5.1 22.5,10 30.6,9.9c7.1,-0.1 10.7,-1.8 10.7,-1.8" class="st19"/><path id="svg_68" d="m757.6,93.6c-0.3,1.9 5.2,5.1 6.2,2.3s-5.2,-5.1 -6.2,-2.3z" class="st19"/><path id="svg_69" d="m746.6,56.3c2.2,3.5 6.5,7.8 12.4,7.8s16.2,-4.9 23.2,-3.5s15.1,6.8 15.7,17.8c0.5,10.5 -4.5,13.9 -7.9,19.1c-0.3,0.5 1.1,1.7 1.4,2.2c3,5 1.3,6.1 0.2,9.1c-1.1,3.2 -8.1,6.8 -13.5,5.4" class="st19"/><path id="svg_70" d="m806,99.2c5.7,-3.5 17.6,-2.2 19.7,-0.5" class="st19"/><path id="svg_71" d="m806,101.9c4.3,-0.3 10.3,4.1 12.4,7.6" class="st19"/><path id="svg_72" d="m749.9,88.1c-3.2,-3.8 -7.6,-5.1 -11.1,-4.6" class="st19"/><path id="svg_73" d="m748.2,91.4c-3.5,-1.9 -4.6,-2.4 -7,-1.9" class="st19"/><path id="svg_74" d="m749.9,88.1c-3.2,-3.8 -7.6,-5.1 -11.1,-4.6" class="st20"/><path id="svg_75" d="m748.2,91.4c-3.5,-1.9 -4.6,-2.4 -7,-1.9" class="st20"/><path id="svg_76" d="m798.4,117.9c4.3,4.5 7.8,12.9 9.3,18" class="st19"/><path id="svg_77" d="m811.7,136.5c-10.3,1.4 -19.4,-4.9 -34.3,-4.1c-11.3,0.6 -22.7,8.1 -21.6,13.2c-1.9,-0.8 -5.4,0 -4.3,2.7c1.1,2.7 14.9,2.7 28.6,2.7s40.2,-2.4 42.6,-6.2c2.4,-3.8 -4.9,-18.7 -9.2,-25.1c-4.7,-7 -13.9,-16.7 -17.7,-12.7c-2.7,2.7 0.7,5.6 0.4,8.3" class="st19"/><path id="svg_78" d="m799.2,118.6c1,4.8 0.9,6.8 1.7,16.5" class="st19"/><path id="svg_79" d="m788.7,119.9c0,4.8 -2.2,12.3 -2.2,12.3" class="st19"/><path id="svg_80" d="m783.2,115.4c-0.5,5.2 -8.9,15.6 -11.8,18" class="st19"/><path id="svg_81" d="m777.1,114.1c-5.7,3.8 -24,5.4 -28.6,-5.2c-4.6,-10.5 -3.5,-26.5 -8.9,-34.6c-5.4,-8.1 -22,-12 -30.6,-2.5s-2.9,19.6 -2.9,22.1c0,2.4 -4.6,6.2 -2.2,8.9c2.4,2.7 6,-3.7 11.2,-7.2s15.8,-7.2 20.7,-4" class="st19"/><path id="svg_82" d="m733.4,90.3c2.2,3.2 3,7 0.3,8.1s-6.2,-4.9 -6.5,-7.8" class="st19"/><path id="svg_83" d="m735,106.2c2.6,-1.7 10.5,11.6 7.7,15c-2.7,3.4 -12.9,-11.6 -7.7,-15z" class="st19"/><path id="svg_84" d="m719.1,92.7c3,1.6 4.7,8.6 7.6,15.1c3.3,7.4 5.9,19.4 22.4,20.8s30.7,-7 34,-11.4" class="st19"/><path id="svg_85" d="m760.9,128.1c-3.2,-2.4 -14.3,-5.7 -11.9,0.5" class="st19"/><path id="svg_86" d="m769.9,32.8c-7.3,-1.4 -21.3,0.8 -23.2,3.5s1.9,9.2 2.7,10.8" class="st19"/><path id="svg_87" d="m750.4,38.2c2.4,0 5.9,2.4 5.9,2.4" class="st19"/><path id="svg_88" d="m819.9,97.2c2.8,0.3 5,0.9 5.8,1.5" class="st20"/><path id="svg_89" d="m814.9,105.6c1.5,1.2 2.8,2.6 3.6,3.9" class="st20"/><path id="svg_90" d="m620.4,70.2c-4.1,-4.8 -10.4,-9.1 -10.4,-9.1l6.3,-11.9c0,0 9.2,6 9.2,16.9" class="st21"/><ellipse id="svg_91" cx="648.263" cy="67.734" class="st15" rx="2.9" ry="2.7" transform="matrix(0.9832,-0.1825,0.1825,0.9832,-27.9371,117.0104)"/><path id="svg_92" d="m626.7,65.6c0.8,-5.4 1.3,-16.1 -0.2,-18.5l13.7,-0.8c0,0 -0.5,11.3 -6.2,19.9l-7.3,-0.6z" class="st21"/><ellipse id="svg_93" cx="769.805" cy="164.341" class="st15" rx="4.1" ry="2.3" transform="matrix(0.3004,-0.9538,0.9538,0.3004,243.5412,747.7424)"/><path id="svg_94" d="m499.4,63.5c-1,-0.7 -2,-1.5 -3.5,-1s-7,8.7 -3.7,19.2" class="st19"/><path id="svg_95" d="m562.1,62.6c-2,-2.7 -6,-4.1 -7.8,-2.8c-1.7,1.2 -3.7,8.5 -12,14c-8.2,5.5 -22.2,2.5 -27.5,5c-5.2,2.5 -9,9 -6.2,22.2c2.8,13.2 11.5,13.5 12.7,16s-1.5,6.2 -1,9c0.5,2.7 5.7,8 11.2,7.7" class="st19"/><path id="svg_96" d="m554.7,105.5c1.3,1.4 7.4,-1.5 6.5,-3.9s-7.9,1 -6.5,3.9z" class="st19"/><path id="svg_97" d="m571.3,92c1.2,-4.5 4,-8.5 7.2,-9.2" class="st19"/><path id="svg_98" d="m573.5,95.8c2.2,-3.2 7.2,-3.5 8.5,-3.2" class="st19"/><path id="svg_99" d="m571.2,91.8c1.2,-4.5 4.1,-8.2 7.3,-9" class="st20"/><path id="svg_100" d="m573.5,95.8c2.2,-3.2 7.2,-3.5 8.5,-3.2" class="st20"/><path id="svg_101" d="m539.3,47.8c3.2,-3 14.5,-7.7 18.5,-5.5s3.7,14.7 2.2,18.7" class="st19"/><path id="svg_102" d="m550.8,53.5c1,-4.2 3.7,-7.5 5,-7.7" class="st19"/><path id="svg_103" d="m503.3,121.8c-4,0.7 -7.1,2.3 -8.7,3.5" class="st20"/><path id="svg_104" d="m506.2,126.4c-2.3,1.2 -4.4,3.2 -5.3,5.4" class="st20"/><path id="svg_105" d="m612.4,102.3c-6.3,6 -33.3,16.3 -50,19.3" class="st19"/><path id="svg_106" d="m631.3,101.8c-6.7,0.2 -18,-0.7 -20,-15.5c-2,-14.7 12,-20 18,-20.5s15,-1 18.2,13s-0.1,23.1 -6.5,30.1c-7.1,7.9 -32.5,20.8 -82.6,19.7" class="st19"/><path id="svg_107" d="m612,89.8c-2.7,2.7 -3.7,8.5 -1.5,11.2c1.5,2 6,2.7 10.2,-0.2" class="st19"/><path id="svg_108" d="m627.4,101.8c-4,4.2 -18.4,14 -21.6,9.9c-1.7,-2.2 11.3,-7.7 11.7,-9.3" class="st19"/><path id="svg_109" d="m598.4,115.8c1.5,2.4 -6,5.9 -10.5,7.1c-4.7,1.2 -14.2,2 -14.3,0.3c-0.2,-1.5 7.5,-3.3 12.9,-4.9c4.7,-1.5 10.7,-4.3 11.9,-2.5z" class="st19"/><path id="svg_110" d="m555.8,126.5c3.7,4.5 18.7,8.7 27.7,10c9,1.2 13.2,11.1 11.2,15.7c-0.7,1.7 -4,2.7 -6,6c-2,3.2 -4.7,9.2 -6.2,17.2s0,22.5 -5.2,22s-4.7,-2.5 -5,-4.5" class="st19"/><path id="svg_111" d="m580.5,146.5c-6,1.2 -23.2,10.5 -21.5,26.7s11.5,19.7 16,19.7" class="st19"/><path id="svg_112" d="m572,150c-4.5,-1.5 -14.6,-9.6 -16.6,-15.1" class="st19"/><path id="svg_113" d="m553.1,131.6c3.7,4.2 9.5,17.2 9,27.9" class="st19"/><path id="svg_114" d="m567.1,189.5c0,6.7 -0.7,12 -1.7,15" class="st19"/><path id="svg_115" d="m558.6,202.7c4.2,0.7 21.5,5.5 22.5,18" class="st19"/><path id="svg_116" d="m531.2,133.6c-5.7,3 -19.4,9.3 -25.7,16.3c-5.7,6.3 -7.8,13 -3.2,20.5" class="st19"/><path id="svg_117" d="m530.4,145.2c2.7,-4.7 5.6,-8.4 9.3,-10.7" class="st19"/><path id="svg_118" d="m545.4,176.5c-1.3,6.7 -2.7,14.8 -5.3,22.3c-5.7,16.3 -5.2,24.8 -4,28.3s13.8,4.9 22.3,5.7c8,0.7 18.4,0.1 23.6,-3.4c5.2,-3.5 6.7,-7.2 4,-8.7c-5.7,-3.2 -9.1,9.6 -16.6,11.8" class="st19"/><path id="svg_119" d="m546.1,133.9c2,5 2.2,14.1 2,21" class="st19"/><path id="svg_120" d="m545.2,177.5c-2.7,7.7 -8.4,19 -14.1,28.3c-5.8,9.6 -14.4,22.4 -17.3,23.7c-9,3.7 -25.9,6 -34.3,5.3c-4.8,-0.4 -5.2,-5.1 -1.7,-6.3c3.5,-1.2 7.8,5.9 14.3,5.7" class="st19"/><path id="svg_121" d="m481.6,227.9" class="st19"/><path id="svg_122" d="m481.5,228.8c0,-5.7 3,-16.4 9,-21c4.3,-3.3 14.4,-6.2 19.1,-4.7" class="st19"/><path id="svg_123" d="m509.6,195.4c-1.7,3.5 -5,7 -5,7" class="st19"/><path id="svg_124" d="m496.1,172.7c1.5,-4.5 19.5,-2.5 22,-2.5s10,0.5 12.5,2s-2.5,27 -2.5,27s-10,1 -12.5,0.5s-21,-3 -22.5,-6c-1.5,-3 3,-21 3,-21z" class="st21"/><path id="svg_125" d="m522.1,170.5c-6.5,1.7 -12.7,15.7 -18.5,15.2c-3.5,-0.3 -7,-11.5 -7.5,-13s0,-4 3.7,-3.5c3.8,0.5 22.3,1.3 22.3,1.3z" class="st15"/><path id="svg_126" d="m492.8,191.5c6,6 21,5.8 25,4.3s3.8,-23.7 3.8,-25.1c0,0 7,0 9,1.5s-0.5,24 -2.5,27s-7.5,0.5 -12.5,0.5s-22,-3.5 -22.5,-6c-0.5,-2.5 -0.3,-2.2 -0.3,-2.2z" class="st22"/><path id="svg_127" d="m558.1,128.2" class="st19"/><path id="svg_128" d="m529.6,176.7c19.5,-19 24.5,-49.8 24.5,-49.8l-3.5,1.2c-5.5,18.5 -23,38.1 -28,44.6l7,4" class="st15"/><path id="svg_129" d="m522.6,172.7c0,0 -1.2,9 1.3,10s5.7,-6 5.7,-6l-7,-4z" class="st18"/><path id="svg_130" d="m516.6,150c7,-4.2 18,-7.7 24.7,-2.7s11.8,16.7 7.4,25c-2.7,5 -6.7,7 -9.3,7" class="st19"/><path id="svg_131" d="m522.4,170.2c6.7,-2.7 8.4,4.2 10.3,10.7c1.7,5.7 9.7,3 9.3,-1.7" class="st19"/><circle id="svg_132" cx="525" cy="180" r="1.1" class="st15"/><ellipse id="svg_133" cx="646.96" cy="304.35" class="st18" rx="1.6" ry="1.1" transform="matrix(0.1631,-0.9866,0.9866,0.1631,98.1069,771.6032)"/><path id="svg_134" d="m497.8,59c8.3,-8.7 21.2,-14.1 38,-12.3c8.7,0.9 18.9,8 24.6,14c8,8.3 8.9,29.4 8.9,29.4s2.4,1.8 4.2,5.7c1.7,3.7 5.1,10.9 -5.2,20.8c-7.7,7.5 -22.6,18 -42.3,17.3s-28.8,-7.8 -35.6,-19.7c-6.7,-11.6 -7.3,-25.6 -5.8,-34.3c-0.7,-6.8 2.5,-18.2 6.3,-22.2c0.4,-0.4 1.4,-0.6 2,-0.6c4.9,0.4 12.5,3.4 16.2,8.7" class="st19"/><path id="svg_135" d="m510.6,121.7c-7.2,-1.2 -13.5,1.7 -16,3.5" class="st19"/><path id="svg_136" d="m511.1,125c-3.7,0 -8.7,3 -10.2,6.7" class="st19"/><path id="svg_137" d="m538.1,135.9c0.3,3 -0.7,9.3 -0.7,9.3" class="st19"/></g></svg>